<svg xmlns="http://www.w3.org/2000/svg"
shape-rendering="geometricPrecision"
width="4000" height="4000" viewBox="0 0 886 886">
  <metadata>null</metadata>

<path d="
M 39.979 430.108
C 46.653 423.029 55.049 416.871 63.017 411.342
C 85.763 395.555 111.192 385.158 137.799 377.92
C 159.313 372.068 181.335 369.792 203.472 368.017
C 224.072 366.366 244.992 367.242 265.545 369.039
C 282.072 370.484 298.562 372.264 314.937 375.011
C 340.361 379.275 365.386 385.038 390.65 390.061
C 425.762 397.041 460.92 406.227 496.999 405.732
C 508.786 405.571 520.644 404.349 531.979 401.03
C 536.31 399.763 540.575 398.263 544.746 396.543
C 546.341 395.885 547.746 394.767 549.403 394.481
C 549.468 394.47 548.826 395.228 548.813 395.242
C 548.493 395.571 548.15 395.88 547.792 396.167
C 546.481 397.214 545.234 398.335 543.923 399.383
C 531.809 408.438 516.882 413.585 502.103 416.321
C 473.733 421.574 444.392 419.519 415.941 416.019
C 381.82 411.821 348.33 404.042 314.43 398.515
C 263.681 390.241 212.874 385.155 161.498 389.894
C 130.512 392.752 99.219 399.774 70.974 413.092
C 62.715 416.986 54.958 421.324 47.125 425.987
C 45.241 427.108 43.56 428.447 41.753 429.679
C 41.221 430.042 40.38 430.833 39.712 430.546
C 39.801 430.4 39.89 430.254 39.979 430.108 Z"
opacity="1" fill="rgb(88,138,187)" fill-rule="evenodd" />
<path d="
M 42.693 506.96
C 47.422 503.287 50.226 497.363 54.92 493.679
C 56.951 496.404 60.16 498.701 63.023 500.472
C 70.294 504.969 78.453 507.225 87.028 506.778
C 93.18 506.457 102.149 502.54 99.474 494.712
C 97.416 488.692 89.081 487.248 83.687 485.962
C 72.483 483.29 58.427 481.445 51.55 470.986
C 44.774 460.681 46.999 445.921 55.937 437.624
C 60.008 433.846 65.565 431.501 70.984 430.485
C 82.912 428.251 95.4 429.941 106.408 435.039
C 108.998 436.238 111.562 437.543 113.938 439.129
C 115.546 440.202 117.093 441.632 118.809 442.508
C 115.482 445.641 113.102 450.116 110.203 453.659
C 109.54 454.468 108.989 455.357 108.361 456.192
C 108.292 456.283 107.656 457.169 107.632 457.168
C 105.972 455.11 102.941 453.534 100.647 452.284
C 94.299 448.824 85.683 445.951 78.337 447.015
C 73.444 447.723 67.189 449.504 67.919 455.839
C 68.906 464.394 80.848 465.617 87.519 467.182
C 98.837 469.837 112.403 472.589 118.027 484.093
C 118.951 485.983 119.628 488.018 120.03 490.081
C 120.537 492.679 120.762 495.329 120.534 497.969
C 120.258 501.152 119.564 504.367 118.12 507.239
C 109.622 524.137 86.309 526.308 69.806 522.605
C 66.577 521.88 63.455 520.814 60.404 519.545
C 55.279 517.415 50.651 514.61 46.46 510.96
C 45.546 510.164 42.719 508.149 42.693 506.96 Z"
opacity="1" fill="rgb(52,162,213)" fill-rule="evenodd" />
<path d="
M 130.956 470.59
C 131.824 464.058 133.934 457.68 137.388 452.052
C 140.947 446.253 145.622 441.242 151.335 437.496
C 172.635 423.531 204.188 428.584 218.936 449.637
C 222.235 454.346 224.606 459.713 225.975 465.288
C 227.332 470.811 227.749 476.78 227.044 482.431
C 226.293 488.443 224.615 494.739 221.488 499.978
C 216.428 508.453 209.222 515.341 200.207 519.496
C 181.543 528.1 157.563 524.543 143.272 509.437
C 138.165 504.04 134.738 497.728 132.443 490.709
C 130.373 484.379 130.082 477.167 130.956 470.59 Z
M 152.458 474.121
C 151.998 479.211 152.768 484.626 154.74 489.35
C 160.772 503.807 179.183 509.581 192.659 501.747
C 200.122 497.409 204.618 488.855 205.374 480.416
C 205.828 475.342 205.091 470.191 203.195 465.449
C 196.649 449.08 175.65 443.975 161.977 454.953
C 156.181 459.607 153.113 466.878 152.458 474.121 Z"
opacity="1" fill="rgb(64,148,202)" fill-rule="evenodd" />
<path d="
M 237.93 493.096
C 238.48 489.694 239.15 486.533 240.73 483.428
C 248.438 468.284 266.792 467.94 281.501 467.725
C 284.67 467.678 287.838 467.64 291.008 467.622
C 294.454 467.603 297.923 467.812 301.363 467.713
C 301.449 464.69 301.491 461.241 300.576 458.336
C 298.462 451.626 292.107 448.786 285.55 448.1
C 277.231 447.23 268.985 448.527 261.424 452.153
C 258.928 453.35 256.812 454.999 254.508 456.493
C 252.149 453.015 249.276 449.817 246.599 446.578
C 245.642 445.42 244.433 444.354 243.675 443.059
C 247.422 438.826 253.019 435.926 258.165 433.797
C 261.734 432.321 265.531 431.301 269.327 430.597
C 285.436 427.61 307.426 428.992 317.405 443.903
C 322.36 451.308 322.69 459.932 322.983 468.505
C 323.219 475.41 323.03 482.346 323.045 489.259
C 323.062 497.453 322.963 505.656 322.95 513.856
C 322.947 515.88 323.068 517.888 323.107 519.908
C 323.113 520.25 323.303 521.576 323.052 521.824
C 318.209 521.678 313.343 521.74 308.496 521.725
C 307.007 521.721 303.939 522.411 302.712 521.674
C 302.667 518.228 302.319 514.738 302.12 511.298
C 292.308 523.138 274.921 526.394 260.426 523.01
C 249.576 520.477 240.928 513.351 238.505 502.211
C 237.854 499.217 237.607 496.151 237.93 493.096 Z
M 258.931 493.615
C 258.839 495.101 258.974 496.605 259.338 498.051
C 262.445 510.368 279.933 509.788 289.212 505.985
C 294.458 503.834 299.61 499.626 300.904 493.873
C 301.782 489.972 301.413 485.357 301.394 481.371
C 300.681 480.906 298.884 481.284 298.002 481.286
C 295.001 481.292 292.001 481.31 289.001 481.321
C 280.376 481.353 266.383 479.192 260.886 487.764
C 259.68 489.646 259.405 491.49 258.931 493.615 Z"
opacity="1" fill="rgb(100,122,180)" fill-rule="evenodd" />
<path d="
M 344.35 431.928
C 345.197 430.981 348.416 431.426 349.7 431.401
C 354.988 431.301 360.283 431.443 365.572 431.391
C 366.248 432.212 365.739 434.928 365.771 436.005
C 365.908 440.541 367.017 445.882 366.267 450.351
C 366.362 450.452 366.96 448.938 367.037 448.74
C 367.52 447.485 367.951 446.257 368.65 445.09
C 370.649 441.75 373.246 438.525 376.324 436.125
C 384.647 429.636 398.262 426.323 407.872 432.135
C 408.176 433.865 406.727 437.018 406.176 438.725
C 404.628 443.521 403.499 448.494 401.794 453.233
C 401.39 453.292 400.665 452.844 400.284 452.722
C 398.845 452.263 397.279 452.014 395.78 451.863
C 391.458 451.428 386.997 452.085 382.956 453.671
C 380.754 454.535 378.75 455.744 376.919 457.232
C 372.168 461.095 368.719 466.473 367.439 472.507
C 366.003 479.278 366.706 486.62 366.712 493.499
C 366.718 499.332 366.715 505.164 366.688 510.997
C 366.676 513.498 366.662 515.999 366.683 518.5
C 366.693 519.605 366.966 520.971 366.752 522.043
C 359.48 522.081 351.924 521.227 344.673 522.161
C 345.055 505.967 344.694 489.703 344.63 473.501
C 344.576 459.659 344.903 445.76 344.35 431.928 Z"
opacity="1" fill="rgb(130,114,168)" fill-rule="evenodd" />
<path d="
M 415.107 431.287
C 420.736 431.305 426.373 431.321 432.005 431.349
C 433.262 431.355 436.938 430.761 437.831 431.527
C 443.195 446.652 447.416 462.301 452.099 477.651
C 453.338 481.711 454.653 485.767 455.744 489.869
C 456.164 491.449 456.469 494.409 457.491 495.636
C 460.289 483.21 466.035 471.207 470.32 459.233
C 472.433 453.328 474.559 447.417 476.592 441.484
C 477.767 438.054 478.67 434.468 480.318 431.227
C 486.194 431.711 492.207 431.444 498.099 431.418
C 498.959 432.42 499.234 434.076 499.691 435.307
C 500.876 438.499 501.851 441.761 502.975 444.972
C 507.054 456.627 511.027 468.315 515.114 479.967
C 516.509 483.946 517.784 487.986 519.334 491.906
C 519.654 492.716 520.038 495.331 520.825 495.611
C 527.725 470.423 535.685 445.381 543.843 420.532
C 545.772 414.658 547.691 408.764 549.93 403.001
C 551.995 397.685 554.171 392.497 555.474 386.929
C 551.535 387.557 547.402 387.468 543.422 387.642
C 540.887 387.753 538.175 388.199 535.651 388.012
C 536.095 387.065 537.819 385.993 538.648 385.31
C 541.028 383.349 543.36 381.341 545.786 379.434
C 553.651 373.25 561.875 367.133 569.27 360.402
C 570.048 361.013 570.186 362.747 570.444 363.701
C 571.159 366.343 571.892 368.978 572.615 371.617
C 575.468 382.037 577.878 392.762 581.713 402.866
C 581.086 403.022 579.479 401.305 578.939 400.888
C 576.381 398.913 573.709 396.946 571.253 394.85
C 570.645 394.332 568.692 392.042 568.181 392.603
C 567.079 398.973 565.253 405.224 563.787 411.516
C 560.409 426.019 556.154 440.276 552.32 454.658
C 548.07 470.598 543 486.257 538.207 502.035
C 536.167 508.746 534.65 515.989 531.966 522.462
C 529.251 522.761 526.247 522.394 523.501 522.382
C 519.233 522.365 514.885 522.613 510.628 522.352
C 508.643 518.626 507.632 514.154 506.164 510.198
C 502.637 500.691 499.488 491.048 496.062 481.506
C 494.466 477.062 492.758 472.648 491.106 468.221
C 490.531 466.679 489.82 465.15 489.401 463.555
C 489.287 463.119 489.046 461.713 488.736 461.582
C 488.471 461.469 488.5 462.107 488.383 462.369
C 485.679 472.039 481.535 481.528 478.111 490.971
C 474.331 501.402 470.914 512.025 466.789 522.319
C 464.701 522.708 462.219 522.363 460.081 522.364
C 455.236 522.364 450.381 522.307 445.538 522.38
C 438.319 501.394 431.522 480.251 424.504 459.193
C 422.434 452.982 420.246 446.812 418.165 440.604
C 417.142 437.553 415.705 434.449 415.107 431.287 Z"
opacity="1" fill="rgb(239,120,74)" fill-rule="evenodd" />
<path d="
M 567.414 493.605
C 568.246 489.375 568.922 485.526 571.172 481.734
C 579.591 467.547 597.613 467.701 612.005 467.645
C 615.172 467.632 618.339 467.633 621.506 467.643
C 624.586 467.653 627.788 468.008 630.853 467.771
C 630.221 462.575 631.077 457.747 627.459 453.346
C 624.313 449.518 618.655 448.134 613.954 447.757
C 603.26 446.899 593.032 449.807 584.545 456.391
C 583.443 455.966 582.477 454.149 581.739 453.25
C 579.793 450.879 577.771 448.537 575.76 446.22
C 575.072 445.427 573.248 444.074 573.132 443.09
C 576.715 439.738 580.453 436.928 584.912 434.823
C 588.511 433.124 592.251 431.843 596.107 430.862
C 602.522 429.23 609.572 428.94 616.154 429.374
C 628.362 430.177 641.318 433.343 647.971 444.638
C 649.397 447.06 650.465 449.628 651.223 452.335
C 653.164 459.271 652.728 466.87 652.717 474.002
C 652.702 484.502 652.722 495.001 652.74 505.501
C 652.748 510.737 651.851 517.032 653.201 522.129
C 651.33 521.489 648.522 521.971 646.543 521.928
C 641.808 521.825 637.004 521.79 632.297 522.079
C 632.302 519.227 631.957 516.355 631.902 513.526
C 631.887 512.762 632.178 512.001 631.918 511.26
C 631.518 511.245 631.15 512.034 630.906 512.337
C 629.939 513.539 628.772 514.697 627.617 515.722
C 624.422 518.56 620.339 520.714 616.274 522.005
C 598.671 527.592 572.913 523.477 568.147 502.475
C 567.491 499.584 567.193 496.563 567.414 493.605 Z
M 588.978 493.613
C 588.91 495.084 589.036 496.608 589.397 498.039
C 592.139 508.882 606.324 509.415 615.109 507.055
C 616.962 506.557 618.758 505.987 620.492 505.155
C 624.947 503.017 629.387 498.836 630.514 493.841
C 631.381 489.994 630.926 485.406 630.961 481.478
C 626.974 480.606 622.083 481.286 617.999 481.268
C 609.083 481.228 595.455 479.284 590.324 488.569
C 589.44 490.168 589.294 491.855 588.978 493.613 Z"
opacity="1" fill="rgb(244,155,57)" fill-rule="evenodd" />
<path d="
M 660.352 431.472
C 667.81 430.891 675.542 431.327 683.026 431.385
C 685.286 435.245 686.389 440.266 687.95 444.458
C 692.693 457.196 697.139 470.08 702.174 482.705
C 703.46 485.928 704.699 489.183 705.874 492.447
C 706.443 494.028 706.772 495.841 707.559 497.316
C 708.663 493.536 710.314 489.949 711.672 486.257
C 715 477.208 718.432 468.201 721.822 459.176
C 723.935 453.552 725.979 447.887 727.985 442.224
C 729.239 438.685 730.295 434.777 732.057 431.46
C 734.534 430.928 737.391 431.292 739.922 431.301
C 744.8 431.318 749.681 431.341 754.557 431.376
C 749.376 445.913 743.382 460.303 737.447 474.55
C 730.847 490.39 724.809 506.485 718.269 522.342
C 716.531 522.927 713.854 522.402 712 522.416
C 708.333 522.444 704.666 522.457 701 522.441
C 699.556 522.435 697.661 522.789 696.289 522.381
C 693.85 517.103 691.988 511.513 689.812 506.12
C 682.995 489.229 676.356 472.275 669.507 455.398
C 666.388 447.71 664.038 439.261 660.116 431.951
C 660.195 431.792 660.273 431.632 660.352 431.472 Z"
opacity="1" fill="rgb(98,184,90)" fill-rule="evenodd" />
<path d="
M 754.958 474.101
C 755.439 470.902 755.599 467.695 756.346 464.527
C 758.113 457.028 761.731 449.957 766.75 444.13
C 781.145 427.416 810.505 424.421 828.235 437.453
C 839.194 445.508 845.051 459.245 845.347 472.636
C 845.411 475.545 845.39 478.463 845.252 481.369
C 845.22 482.041 845.337 483.685 844.903 484.208
C 838.978 484.581 832.937 484.297 827 484.289
C 815.499 484.275 803.999 484.214 792.499 484.229
C 787.208 484.235 781.821 483.941 776.548 484.355
C 778.44 489.905 779.849 495.121 784.444 499.206
C 793.074 506.878 806.191 507.981 816.546 503.443
C 820.564 501.682 825.148 498.953 827.026 494.771
C 831.17 499.339 837.336 501.766 841.757 505.945
C 826.373 529.107 790.364 529.52 770.389 512.671
C 759.457 503.449 753.832 488.237 754.958 474.101 Z
M 776.469 468.103
C 776.399 468.621 776.193 469.006 776.539 469.425
C 784.377 468.735 792.63 469.55 800.507 469.577
C 808.445 469.604 816.822 468.841 824.712 469.672
C 824.21 463.913 822.168 458.018 818.107 453.788
C 810.791 446.169 797.412 445.354 788.535 450.666
C 782.001 454.576 778.22 460.867 776.469 468.103 Z"
opacity="1" fill="rgb(89,188,93)" fill-rule="evenodd" />

</svg>